<svg width="26" height="26" viewBox="0 0 26 26" fill="none" xmlns="http://www.w3.org/2000/svg">
<path d="M23.9894 5.80178V3.40722C23.9894 2.77321 23.4418 2.25928 22.7663 2.25928H17.5682" stroke="white" stroke-width="1.45509" stroke-linecap="round" stroke-linejoin="round"/>
<path d="M18.1797 23.4963H22.7663C23.4418 23.4963 23.9893 22.9824 23.9893 22.3483V18.8563" stroke="white" stroke-width="1.45509" stroke-linecap="round" stroke-linejoin="round"/>
<path d="M1.36249 20.0042V22.3483C1.36249 22.9824 1.91006 23.4963 2.58556 23.4963H8.50982" stroke="white" stroke-width="1.45509" stroke-linecap="round" stroke-linejoin="round"/>
<path d="M8.50982 2.25928H2.58556C1.91006 2.25928 1.36249 2.77321 1.36249 3.40722V6.37576" stroke="white" stroke-width="1.45509" stroke-linecap="round" stroke-linejoin="round"/>
<path d="M24.465 7.91129L11.9619 1.13467C11.4504 0.857445 10.7963 1.02195 10.501 1.50213L1.14345 16.7173C0.848138 17.1975 1.0234 17.8115 1.53489 18.0887L14.0381 24.8653C14.5495 25.1426 15.2036 24.9781 15.499 24.4979L24.8566 9.28269C25.1519 8.8025 24.9765 8.18852 24.465 7.91129Z" stroke="white" stroke-width="1.45509" stroke-linecap="round" stroke-linejoin="round"/>
<path d="M18.9448 10.1098L10.6768 5.565" stroke="white" stroke-width="1.45509" stroke-linecap="round" stroke-linejoin="round"/>
<path d="M20.0178 13.2177L9.47943 7.50601" stroke="white" stroke-width="1.45509" stroke-linecap="round" stroke-linejoin="round"/>
<path d="M18.805 15.1995L8.2666 9.48779" stroke="white" stroke-width="1.45509" stroke-linecap="round" stroke-linejoin="round"/>
</svg>
