<svg width="24" height="24" viewBox="0 0 24 24" fill="none" xmlns="http://www.w3.org/2000/svg">
<path fill-rule="evenodd" clip-rule="evenodd" d="M7.55148 0.319516C7.77653 0.114938 8.08175 0 8.40001 0H18C19.9883 0 21.6 1.46525 21.6 3.27273V7.63636C21.6 8.23885 21.0628 8.72727 20.4 8.72727C19.7373 8.72727 19.2 8.23885 19.2 7.63636V3.27273C19.2 2.67024 18.6628 2.18182 18 2.18182H9.60001V7.63636C9.60001 8.23885 9.06277 8.72727 8.40001 8.72727H2.4V20.7273C2.4 21.3298 2.93727 21.8182 3.6 21.8182H8.40001C9.06277 21.8182 9.60001 22.3066 9.60001 22.9091C9.60001 23.5116 9.06277 24 8.40001 24H3.6C1.61178 24 0 22.5348 0 20.7273V7.63636C0 7.34703 0.126432 7.06956 0.351469 6.86497L7.55148 0.319516ZM4.09706 6.54545H7.20001V3.72459L4.09706 6.54545ZM20.6059 19.3717C21.2341 18.5095 21.6 17.4754 21.6 16.3636C21.6 13.3512 18.9137 10.9091 15.6 10.9091C12.2863 10.9091 9.60001 13.3512 9.60001 16.3636C9.60001 19.3761 12.2863 21.8182 15.6 21.8182C16.8229 21.8182 17.9604 21.4856 18.9089 20.9145L21.9515 23.6805C22.4201 24.1065 23.1799 24.1065 23.6485 23.6805C24.1171 23.2545 24.1171 22.5637 23.6485 22.1377L20.6059 19.3717ZM12 16.3636C12 14.5561 13.6117 13.0909 15.6 13.0909C17.5883 13.0909 19.2 14.5561 19.2 16.3636C19.2 18.1712 17.5883 19.6364 15.6 19.6364C13.6117 19.6364 12 18.1712 12 16.3636Z" fill="white"/>
</svg>
