<svg width="84" height="84" viewBox="0 0 84 84" fill="none" xmlns="http://www.w3.org/2000/svg">
<path d="M42 2C54.2729 2 64.2222 12.5345 64.2222 25.5294V30.2353C74.0404 30.2353 82 38.6631 82 49.0588C82 56.0264 78.4249 62.2748 73.1111 65.5294M19.7778 30.2353V25.5294C19.7778 20.2324 21.4308 15.3443 24.2206 11.4118M19.7778 30.2353C9.95938 30.2353 2 38.6631 2 49.0588C2 56.0264 5.57511 62.2748 10.8889 65.5294M19.7778 30.2353C21.7016 30.2353 23.554 30.5591 25.2892 31.1572M42 39.6471V82M42 39.6471L55.3333 53.7647M42 39.6471L28.6667 53.7647" stroke="white" stroke-width="3.75" stroke-linecap="round" stroke-linejoin="round"/>
</svg>
