<svg width="267" height="46" viewBox="0 0 267 46" fill="none" xmlns="http://www.w3.org/2000/svg">
<path d="M27.072 26.112C27.072 26.272 26.88 26.864 26.496 27.888C26.112 28.912 25.648 30.112 25.104 31.488C24.592 32.832 24.048 34.224 23.472 35.664C22.896 37.04 22.4 38.208 21.984 39.168L23.328 35.328C22.24 37.952 20.992 40.56 19.584 43.152V43.296C18.912 43.296 18.256 43.28 17.616 43.248C17.008 43.248 16.368 43.2 15.696 43.104C15.504 42.592 15.264 42.032 14.976 41.424C14.72 40.784 14.448 40.144 14.16 39.504C13.904 38.864 13.632 38.24 13.344 37.632C13.088 37.024 12.848 36.464 12.624 35.952L12.432 36.24C11.76 34.864 11.024 33.472 10.224 32.064C9.456 30.656 8.704 29.312 7.968 28.032C7.232 26.72 6.56 25.536 5.952 24.48C5.344 23.392 4.896 22.512 4.608 21.84C3.84 20.176 3.184 18.464 2.64 16.704C2.096 14.944 1.536 13.184 0.96 11.424C1.184 11.296 1.376 11.184 1.536 11.088C1.728 10.992 1.904 10.944 2.064 10.944C2.256 10.944 2.432 11.088 2.592 11.376C2.784 11.664 2.96 11.984 3.12 12.336C3.28 12.688 3.408 13.04 3.504 13.392C3.632 13.744 3.712 13.968 3.744 14.064L4.176 13.776C4.016 13.168 3.888 12.56 3.792 11.952C3.696 11.344 3.648 10.72 3.648 10.08V9.696C3.648 9.472 3.664 9.264 3.696 9.072C3.76 8.848 3.84 8.656 3.936 8.496C4.032 8.336 4.16 8.256 4.32 8.256C4.544 8.256 4.944 8.736 5.52 9.696C6.096 10.656 6.736 11.872 7.44 13.344C8.176 14.816 8.944 16.448 9.744 18.24C10.576 20 11.36 21.712 12.096 23.376C12.864 25.008 13.536 26.464 14.112 27.744C14.688 29.024 15.104 29.904 15.36 30.384C15.744 31.152 16.112 31.936 16.464 32.736C16.848 33.504 17.264 34.272 17.712 35.04C19.12 31.936 20.272 28.736 21.168 25.44L23.856 15.552C23.952 15.232 24.096 14.56 24.288 13.536C24.48 12.512 24.704 11.456 24.96 10.368C25.216 9.248 25.488 8.256 25.776 7.392C26.064 6.528 26.352 6.096 26.64 6.096L26.784 6.144C26.272 8.352 25.792 10.544 25.344 12.72C24.896 14.864 24.4 17.024 23.856 19.2C24.464 17.088 25.008 14.96 25.488 12.816C25.968 10.672 26.512 8.544 27.12 6.432L27.552 6.72C27.616 6.496 27.712 6.192 27.84 5.808C28 5.392 28.176 4.992 28.368 4.608C28.56 4.192 28.768 3.84 28.992 3.552C29.248 3.264 29.504 3.12 29.76 3.12C29.952 3.12 30.112 3.232 30.24 3.456C30.4 3.68 30.512 3.936 30.576 4.224C30.64 4.512 30.688 4.8 30.72 5.088C30.752 5.376 30.768 5.584 30.768 5.712C30.768 5.776 30.72 5.92 30.624 6.144C30.56 6.336 30.512 6.48 30.48 6.576C29.648 9.328 28.896 12.096 28.224 14.88C27.584 17.664 26.912 20.448 26.208 23.232C25.536 25.984 24.768 28.72 23.904 31.44C23.072 34.096 22.064 36.72 20.88 39.312C22.064 36.784 23.088 34.192 23.952 31.536C24.848 28.816 25.664 26.08 26.4 23.328C27.168 20.544 27.888 17.76 28.56 14.976C29.264 12.192 30.048 9.44 30.912 6.72C30.912 7.968 30.816 9.2 30.624 10.416C30.432 11.632 30.192 12.848 29.904 14.064C29.616 15.28 29.296 16.496 28.944 17.712C28.592 18.896 28.272 20.08 27.984 21.264H27.552C26.816 24.688 25.904 28.048 24.816 31.344C25.104 30.576 25.408 29.808 25.728 29.04C26.048 28.272 26.384 27.52 26.736 26.784L27.072 26.112ZM14.4 42C14.144 41.424 13.856 40.704 13.536 39.84C13.216 38.944 12.928 38.128 12.672 37.392C13.088 38.096 13.456 38.848 13.776 39.648C14.096 40.416 14.304 41.2 14.4 42ZM23.856 19.2C23.216 21.664 22.528 24.112 21.792 26.544C21.248 28.336 20.624 30.112 19.92 31.872C20.656 30.144 21.312 28.368 21.888 26.544C22.656 24.144 23.312 21.696 23.856 19.2ZM20.208 43.536C19.76 43.472 19.312 43.44 18.864 43.44H17.52C17.84 43.408 18.144 43.392 18.432 43.392H20.064L21.216 40.992H21.408L20.208 43.536ZM14.928 43.44C14.864 43.28 14.784 43.072 14.688 42.816C14.624 42.592 14.528 42.336 14.4 42.048C14.528 42.24 14.736 42.464 15.024 42.72C15.312 43.008 15.536 43.28 15.696 43.536L14.928 43.44ZM21.408 40.944H21.216C21.28 40.816 21.376 40.608 21.504 40.32C21.632 40 21.792 39.632 21.984 39.216L21.408 40.944ZM35.523 39.504C35.651 38.608 35.763 37.568 35.859 36.384C35.987 35.168 36.099 33.952 36.195 32.736C36.291 31.52 36.387 30.336 36.483 29.184C36.579 28 36.675 26.976 36.771 26.112C36.611 26.976 36.467 27.968 36.339 29.088C36.211 30.208 36.083 31.36 35.955 32.544C35.827 33.728 35.699 34.912 35.571 36.096C35.443 37.248 35.331 38.288 35.235 39.216C34.755 38.896 34.515 38.464 34.515 37.92C34.515 37.28 34.531 36.752 34.563 36.336C34.595 35.888 34.643 35.376 34.707 34.8L35.235 34.32C35.203 34.16 35.187 34.016 35.187 33.888V33.408C35.187 32.672 35.267 31.84 35.427 30.912C35.587 29.952 35.763 28.992 35.955 28.032C36.179 27.04 36.371 26.096 36.531 25.2C36.691 24.272 36.771 23.472 36.771 22.8L36.195 22.656C36.131 23.424 36.035 24.304 35.907 25.296C35.779 26.256 35.635 27.264 35.475 28.32C35.347 29.344 35.219 30.368 35.091 31.392C35.027 31.936 34.963 32.448 34.899 32.928C34.963 32.032 35.043 31.072 35.139 30.048C35.299 28.576 35.459 27.12 35.619 25.68C35.811 24.208 35.987 22.768 36.147 21.36C36.307 19.952 36.467 18.656 36.627 17.472C36.627 16.992 36.739 16.48 36.963 15.936C37.219 15.36 37.395 14.768 37.491 14.16C37.683 14.224 37.843 14.256 37.971 14.256H38.307C38.627 14.256 38.835 14.336 38.931 14.496C39.027 14.624 39.075 14.816 39.075 15.072V15.312L39.507 15.456C39.763 14.976 40.067 14.592 40.419 14.304C40.771 14.016 41.123 13.872 41.475 13.872C42.243 13.872 42.627 14.688 42.627 16.32C42.627 17.184 42.531 18.112 42.339 19.104C42.179 20.064 42.099 21.008 42.099 21.936V22.56C42.099 23.584 41.987 24.704 41.763 25.92C41.539 27.104 41.283 28.32 40.995 29.568C40.739 30.784 40.499 31.968 40.275 33.12C40.051 34.272 39.939 35.328 39.939 36.288C39.939 36.512 39.955 36.752 39.987 37.008C40.019 37.264 40.035 37.504 40.035 37.728C40.035 38.208 39.939 38.512 39.747 38.64C39.587 38.736 39.379 38.784 39.123 38.784C39.123 38.368 39.107 37.856 39.075 37.248C39.043 36.64 39.027 36.096 39.027 35.616C38.963 35.968 38.931 36.448 38.931 37.056C38.931 37.664 38.899 38.24 38.835 38.784H38.115V39.36C37.827 39.872 37.443 40.128 36.963 40.128C36.739 40.128 36.483 40.064 36.195 39.936C35.907 39.808 35.683 39.664 35.523 39.504ZM45.411 2.64C44.867 2.96 44.371 3.376 43.923 3.888C43.475 4.4 43.011 4.896 42.531 5.376C42.819 5.184 43.075 4.976 43.299 4.752C43.523 4.528 43.747 4.304 43.971 4.08C44.227 3.856 44.483 3.632 44.739 3.408C45.027 3.184 45.347 2.976 45.699 2.784C45.795 2.912 45.875 3.024 45.939 3.12C46.035 3.216 46.083 3.312 46.083 3.408L44.979 4.512C44.979 4.448 44.915 4.384 44.787 4.32C44.691 4.256 44.611 4.224 44.547 4.224C44.451 4.544 44.291 4.8 44.067 4.992C43.843 5.184 43.619 5.36 43.395 5.52C43.171 5.68 42.947 5.856 42.723 6.048C42.499 6.24 42.339 6.496 42.243 6.816V6.912C42.243 6.944 42.291 6.96 42.387 6.96L44.787 4.704L43.875 5.616C43.427 6.064 42.947 6.528 42.435 7.008C41.955 7.456 41.491 7.856 41.043 8.208C40.627 8.56 40.371 8.736 40.275 8.736L40.227 8.688C40.003 8.624 39.763 8.592 39.507 8.592C39.283 8.592 39.043 8.576 38.787 8.544C38.787 8.288 38.739 8.016 38.643 7.728C38.579 7.44 38.547 7.216 38.547 7.056C38.547 6.896 38.627 6.816 38.787 6.816C38.787 6.72 38.723 6.576 38.595 6.384C38.499 6.16 38.387 5.92 38.259 5.664C38.131 5.376 38.003 5.088 37.875 4.8C37.779 4.48 37.731 4.16 37.731 3.84C37.731 3.52 37.859 3.216 38.115 2.928C38.403 2.608 38.723 2.336 39.075 2.112C39.459 1.888 39.827 1.696 40.179 1.536C40.531 1.376 40.787 1.264 40.947 1.2C41.075 1.2 41.123 1.136 41.091 1.008C41.059 0.847999 41.107 0.767999 41.235 0.767999L42.099 1.056C42.035 1.216 41.827 1.488 41.475 1.872C41.155 2.224 40.915 2.48 40.755 2.64C40.979 2.48 41.235 2.24 41.523 1.92C41.843 1.6 42.083 1.36 42.243 1.2C42.403 1.264 42.547 1.328 42.675 1.392C42.803 1.456 42.899 1.488 42.963 1.488L43.107 1.344C43.331 1.344 43.571 1.392 43.827 1.488C44.115 1.584 44.371 1.696 44.595 1.824C44.819 1.952 45.011 2.096 45.171 2.256C45.331 2.416 45.411 2.544 45.411 2.64ZM34.803 34.08C34.835 33.728 34.867 33.376 34.899 33.024C34.867 33.408 34.835 33.76 34.803 34.08ZM59.0033 17.808H59.8193C61.6753 17.808 63.5153 18.144 65.3393 18.816C67.1633 19.456 68.7953 20.368 70.2353 21.552C71.6753 22.736 72.8273 24.16 73.6913 25.824C74.5873 27.456 75.0353 29.248 75.0353 31.2C75.0353 33.28 74.7473 35.024 74.1713 36.432C73.5953 37.808 72.7793 38.944 71.7233 39.84C70.6673 40.736 69.4033 41.44 67.9313 41.952C66.4593 42.432 64.8273 42.832 63.0353 43.152C64.1553 43.056 65.4033 42.848 66.7793 42.528C68.1873 42.208 69.4993 41.648 70.7153 40.848C71.9633 40.016 73.0033 38.88 73.8353 37.44C74.6673 35.968 75.0833 34.048 75.0833 31.68C75.0833 28.768 74.2673 26.144 72.6353 23.808C71.0033 21.472 68.5713 19.712 65.3393 18.528C64.5393 18.176 63.7073 17.904 62.8433 17.712C62.0113 17.488 61.1633 17.376 60.2993 17.376C60.5873 17.216 60.9713 17.136 61.4513 17.136C61.9313 17.104 62.3153 17.088 62.6033 17.088C63.8513 17.088 65.1313 17.344 66.4433 17.856C67.7873 18.368 69.0513 19.072 70.2353 19.968C71.4193 20.864 72.4593 21.92 73.3553 23.136C74.2833 24.32 74.9713 25.584 75.4193 26.928C75.2593 26.992 75.1153 27.12 74.9873 27.312C75.2433 28.112 75.4353 28.896 75.5633 29.664C75.6913 30.432 75.7552 31.216 75.7552 32.016C75.7552 32.912 75.6753 33.808 75.5153 34.704C75.3873 35.6 75.0993 36.48 74.6512 37.344C74.2353 38.208 73.6273 39.024 72.8273 39.792C72.0593 40.56 71.0353 41.248 69.7553 41.856C68.4753 42.464 66.9073 42.96 65.0513 43.344C63.1953 43.76 60.9873 44.032 58.4273 44.16C58.2673 44.256 58.0433 44.304 57.7553 44.304C57.4673 44.336 57.1793 44.352 56.8913 44.352H56.2193C55.7393 44.352 55.2433 44.256 54.7313 44.064C54.2193 43.904 53.7553 43.6 53.3393 43.152C52.9233 42.736 52.5873 42.176 52.3313 41.472C52.0753 40.736 51.9473 39.824 51.9473 38.736V38.208C51.9153 38.336 51.8673 38.4 51.8033 38.4C51.7073 38.4 51.6593 38.368 51.6593 38.304V38.544C51.6593 39.12 51.6913 39.776 51.7553 40.512C51.8193 41.216 51.9953 41.888 52.2833 42.528C52.6033 43.168 53.0833 43.696 53.7233 44.112C54.3953 44.56 55.3393 44.784 56.5553 44.784C56.8433 44.784 57.1313 44.768 57.4193 44.736C57.7393 44.736 58.0753 44.688 58.4273 44.592C60.7633 44.496 62.9873 44.24 65.0993 43.824C67.2433 43.408 69.1313 42.736 70.7633 41.808C72.3953 40.848 73.6913 39.552 74.6512 37.92C75.6113 36.288 76.0913 34.192 76.0913 31.632C76.0913 30.8 76.0273 29.952 75.8993 29.088C75.9313 29.44 75.9793 29.776 76.0433 30.096C76.1073 30.608 76.1393 31.12 76.1393 31.632C76.1393 32.336 76.0913 33.136 75.9953 34.032C75.9313 34.928 75.7233 35.84 75.3713 36.768C75.0513 37.696 74.5713 38.608 73.9313 39.504C73.2913 40.4 72.3953 41.184 71.2433 41.856C70.0593 42.56 68.8273 43.104 67.5473 43.488C66.2993 43.904 65.0993 44.208 63.9473 44.4C62.8273 44.624 61.8033 44.752 60.8753 44.784C59.9793 44.848 59.3073 44.88 58.8593 44.88H58.2833C57.9953 44.88 57.6913 44.896 57.3713 44.928C57.0833 44.992 56.7633 45.024 56.4113 45.024H56.1713C55.8833 45.024 55.5153 44.992 55.0673 44.928C54.6513 44.864 54.2033 44.704 53.7233 44.448C53.2753 44.192 52.8593 43.776 52.4753 43.2C52.0913 42.656 51.8193 41.872 51.6593 40.848C51.5953 40.496 51.5473 40.144 51.5153 39.792C51.4833 39.44 51.4353 39.12 51.3713 38.832C51.3713 38.192 51.4193 37.6 51.5153 37.056C51.6113 36.48 51.6593 36.016 51.6593 35.664V26.88L49.9313 17.808C49.9633 17.168 49.9953 16.464 50.0273 15.696C50.0913 14.928 50.1393 14.144 50.1713 13.344C50.2353 12.512 50.2833 11.696 50.3153 10.896C50.3473 10.096 50.3633 9.328 50.3633 8.592C50.3633 8.336 50.3473 8.096 50.3153 7.872C50.3153 7.616 50.3153 7.376 50.3153 7.152C50.4113 7.248 50.5073 7.296 50.6033 7.296C50.7313 7.296 50.8593 7.264 50.9873 7.2C51.1473 7.104 51.2913 7.056 51.4193 7.056C51.5153 7.056 51.6113 7.104 51.7073 7.2C51.8033 7.296 51.8833 7.472 51.9473 7.728C52.0433 7.984 52.1073 8.368 52.1393 8.88C52.1713 9.36 52.1873 9.984 52.1873 10.752H52.6193C52.7473 8.992 52.9713 7.616 53.2913 6.624C53.6433 5.632 53.9953 5.136 54.3473 5.136C54.7633 5.136 55.0673 5.648 55.2593 6.672C55.4513 7.696 55.5793 8.992 55.6433 10.56C55.7393 12.096 55.8193 13.792 55.8833 15.648C55.9473 17.472 56.0753 19.2 56.2673 20.832C56.6193 22.72 56.9073 24.736 57.1313 26.88C57.3553 28.992 57.4993 31.056 57.5633 33.072C57.5633 34.576 57.5473 35.648 57.5153 36.288C57.4833 36.928 57.4353 37.392 57.3713 37.68V38.976L59.0033 38.832C60.0273 38.832 61.0833 38.784 62.1713 38.688C63.2593 38.56 64.1713 38.368 64.9073 38.112C66.2513 37.888 67.2913 37.568 68.0273 37.152C68.7953 36.704 69.3713 36.224 69.7553 35.712C70.1393 35.2 70.3793 34.656 70.4753 34.08C70.5713 33.504 70.6193 32.96 70.6193 32.448C70.6193 31.456 70.5393 30.512 70.3793 29.616C70.2513 28.688 69.9793 27.84 69.5633 27.072C69.1473 26.272 68.5393 25.552 67.7393 24.912C66.9393 24.24 65.8993 23.648 64.6193 23.136C63.2113 22.592 62.1873 22.272 61.5473 22.176C60.9393 22.08 60.6353 21.888 60.6353 21.6C60.6353 21.568 60.6673 21.456 60.7313 21.264C62.0753 21.328 63.4193 21.648 64.7633 22.224C66.0113 22.768 67.1473 23.456 68.1713 24.288C67.1793 23.456 66.0753 22.768 64.8593 22.224C63.5473 21.616 62.2193 21.248 60.8753 21.12C60.9713 20.992 61.0193 20.832 61.0193 20.64C61.0193 20.544 60.9713 20.416 60.8753 20.256H60.0593C59.8353 20.256 59.5953 20.272 59.3393 20.304C59.0833 20.336 58.8753 20.368 58.7153 20.4C57.9473 20.336 57.4033 20.224 57.0833 20.064C56.7953 19.904 56.6513 19.712 56.6513 19.488C56.6513 19.168 56.9073 18.848 57.4193 18.528C57.9633 18.208 58.4913 17.968 59.0033 17.808ZM71.6273 31.536C71.6273 33.008 71.4513 34.208 71.0993 35.136C70.7473 36.064 70.2513 36.784 69.6113 37.296C70.4433 36.72 70.9873 35.984 71.2433 35.088C71.5313 34.192 71.6753 33.056 71.6753 31.68C71.6753 31.456 71.6593 31.248 71.6273 31.056C71.6273 30.896 71.6113 30.72 71.5793 30.528C71.5793 30.72 71.5793 30.896 71.5793 31.056C71.6113 31.216 71.6273 31.376 71.6273 31.536ZM75.8033 28.512L75.8513 28.704L75.8033 28.512ZM68.3153 24.432C68.2513 24.4 68.2033 24.352 68.1713 24.288C68.2353 24.32 68.2833 24.368 68.3153 24.432ZM75.8513 28.752C75.8513 28.816 75.8513 28.864 75.8513 28.896C75.8513 28.864 75.8513 28.816 75.8513 28.752ZM89.2665 42.528C88.9465 42.592 88.5945 42.624 88.2105 42.624H86.8185C85.9865 42.624 85.3945 42.72 85.0425 42.912C84.7225 43.104 84.5305 43.2 84.4665 43.2L84.2745 42.336V41.472L84.0345 36.96C83.9705 36.096 83.7945 35.168 83.5065 34.176C83.2185 33.184 82.9945 32.176 82.8345 31.152C82.7385 30.48 82.6585 29.84 82.5945 29.232L82.4025 27.36C82.3385 26.72 82.2585 26.064 82.1625 25.392C82.0985 24.72 81.9865 24 81.8265 23.232C81.8265 23.04 81.8265 22.848 81.8265 22.656C81.8585 22.464 81.8745 22.272 81.8745 22.08C81.8745 21.088 81.7945 20.112 81.6345 19.152C81.4745 18.192 81.2505 17.248 80.9625 16.32C81.1865 16.224 81.3945 16.144 81.5865 16.08C81.7785 15.984 81.9545 15.936 82.1145 15.936C82.2745 15.936 82.4505 16.128 82.6425 16.512C82.8345 16.864 83.0425 17.616 83.2665 18.768C83.3305 18.768 83.4265 18.752 83.5545 18.72C83.6825 18.656 83.7785 18.624 83.8425 18.624C83.8105 18.08 83.7305 17.504 83.6025 16.896C83.4745 16.256 83.3465 15.648 83.2185 15.072C83.0905 14.496 82.9625 13.984 82.8345 13.536C82.7385 13.056 82.6905 12.672 82.6905 12.384C82.6905 12.32 82.6905 12.24 82.6905 12.144C82.7225 12.048 82.8025 12 82.9305 12C83.0905 12 83.2985 12.176 83.5545 12.528C83.8105 12.88 84.0825 13.328 84.3705 13.872C84.6585 14.416 84.9305 15.008 85.1865 15.648C85.4745 16.256 85.7305 16.832 85.9545 17.376C86.8185 15.744 87.7945 14.512 88.8825 13.68C90.0025 12.816 91.4585 12.384 93.2505 12.384C94.5625 12.384 95.6345 12.544 96.4665 12.864C97.2985 13.152 97.9385 13.488 98.3865 13.872C98.8665 14.224 99.1865 14.56 99.3465 14.88L99.6345 15.36C99.6345 15.552 99.5385 15.68 99.3465 15.744C98.5145 14.944 97.5705 14.336 96.5145 13.92C95.4585 13.504 94.3705 13.296 93.2505 13.296C92.1625 13.296 91.3465 13.44 90.8025 13.728C90.2905 13.984 89.7465 14.304 89.1705 14.688C89.7785 14.304 90.3385 14 90.8505 13.776C91.3945 13.552 92.1785 13.44 93.2025 13.44C94.3225 13.44 95.3945 13.664 96.4185 14.112C97.4425 14.528 98.3225 15.072 99.0585 15.744C98.8985 15.808 98.7545 15.888 98.6265 15.984C98.5305 16.048 98.4825 16.16 98.4825 16.32C98.6425 16.32 98.8185 16.432 99.0105 16.656C99.2025 16.848 99.3785 17.088 99.5385 17.376C99.6985 17.664 99.8265 17.968 99.9225 18.288C100.051 18.576 100.115 18.816 100.115 19.008C100.115 19.552 99.9065 19.824 99.4905 19.824C99.1705 19.824 98.7865 19.712 98.3385 19.488C98.2425 19.456 98.0345 19.28 97.7145 18.96C97.4265 18.64 97.0585 18.32 96.6105 18C96.1625 17.648 95.6505 17.328 95.0745 17.04C94.4985 16.752 93.8585 16.608 93.1545 16.608C92.5785 16.608 92.0665 16.736 91.6185 16.992C91.2025 17.216 90.8185 17.536 90.4665 17.952C90.1145 18.336 89.7945 18.784 89.5065 19.296L88.8825 20.448C89.3625 19.584 89.8905 18.8 90.4665 18.096C91.1065 17.264 91.9065 16.848 92.8665 16.848C93.6985 16.848 94.4665 17.04 95.1705 17.424C95.8745 17.776 96.4505 18.224 96.8985 18.768C96.3545 18.544 95.7145 18.32 94.9785 18.096C94.2425 17.872 93.5385 17.76 92.8665 17.76C92.5145 17.76 92.2105 17.84 91.9545 18C91.6985 18.16 91.4745 18.368 91.2825 18.624C91.1225 18.848 90.9625 19.104 90.8025 19.392C90.6745 19.68 90.5305 19.952 90.3705 20.208L89.7465 20.304C89.2025 21.232 88.7545 22.32 88.4025 23.568C88.0825 24.784 87.9225 26.064 87.9225 27.408C87.9225 28.208 87.9545 28.928 88.0185 29.568C88.1145 30.208 88.2425 30.864 88.4025 31.536L88.9785 33.024L88.8825 31.632C88.8185 30.544 88.7545 29.584 88.6905 28.752C88.6265 27.888 88.5945 26.944 88.5945 25.92C88.6585 24.992 88.7865 24.112 88.9785 23.28C89.1385 22.576 89.3785 21.92 89.6985 21.312C89.3145 22.08 89.0585 22.96 88.9305 23.952C88.7705 25.04 88.6905 26.192 88.6905 27.408C88.6905 28.368 88.7385 29.28 88.8345 30.144C88.9305 31.008 89.0425 31.872 89.1705 32.736C89.3305 33.6 89.4905 34.496 89.6505 35.424C89.8105 36.32 89.9385 37.312 90.0345 38.4L90.1785 39.312L90.4665 42.048L89.2665 42.528ZM89.8425 21.072L89.6985 21.312L89.8425 21.072ZM112.373 13.104C112.405 13.264 112.581 13.344 112.901 13.344H112.997C113.189 13.344 113.317 13.36 113.381 13.392C115.045 13.904 116.693 14.656 118.325 15.648C119.989 16.608 121.477 17.776 122.789 19.152C124.133 20.496 125.205 22.032 126.005 23.76C126.837 25.488 127.253 27.344 127.253 29.328C127.253 31.056 126.917 32.72 126.245 34.32C125.573 35.92 124.645 37.312 123.461 38.496C124.677 37.44 125.637 36.128 126.341 34.56C127.077 32.96 127.445 31.248 127.445 29.424C127.445 27.376 127.013 25.472 126.149 23.712C125.285 21.92 124.181 20.32 122.837 18.912C121.493 17.504 119.989 16.304 118.325 15.312C116.693 14.288 115.093 13.504 113.525 12.96C114.741 12.96 115.973 13.232 117.221 13.776C118.501 14.32 119.717 15.04 120.869 15.936C122.021 16.8 123.077 17.808 124.037 18.96C125.029 20.08 125.861 21.232 126.533 22.416L126.197 22.896C126.837 23.856 127.317 24.896 127.637 26.016C127.989 27.136 128.165 28.288 128.165 29.472C128.165 31.744 127.669 33.744 126.677 35.472C125.717 37.168 124.485 38.592 122.981 39.744C121.509 40.864 119.877 41.712 118.085 42.288C116.325 42.864 114.661 43.152 113.093 43.152C112.197 43.152 111.285 43.056 110.357 42.864C109.461 42.672 108.549 42.352 107.621 41.904V42.192C108.517 42.704 109.429 43.056 110.357 43.248C111.317 43.44 112.261 43.536 113.189 43.536C115.493 43.536 117.749 43.024 119.957 42C122.197 41.008 124.085 39.6 125.621 37.776C124.149 39.664 122.309 41.136 120.101 42.192C117.925 43.248 115.653 43.776 113.285 43.776C110.853 43.776 108.885 43.296 107.381 42.336C105.877 41.408 104.693 40.256 103.829 38.88C102.997 37.504 102.437 36.048 102.149 34.512C101.861 32.976 101.717 31.6 101.717 30.384C101.717 28.752 101.925 27.152 102.341 25.584C102.789 24.016 103.461 22.576 104.357 21.264C105.253 19.952 106.405 18.832 107.813 17.904C109.221 16.944 110.917 16.272 112.901 15.888L111.509 15.552C110.837 15.392 110.357 15.2 110.069 14.976C109.781 14.752 109.637 14.56 109.637 14.4C109.637 14.144 109.909 13.872 110.453 13.584C111.029 13.264 111.669 13.104 112.373 13.104ZM110.213 19.152C111.077 18.832 111.909 18.672 112.709 18.672C113.509 18.672 114.117 18.8 114.533 19.056C114.981 19.28 115.205 19.52 115.205 19.776C115.205 19.936 115.013 20.112 114.629 20.304C114.277 20.496 113.813 20.768 113.237 21.12C112.693 21.44 112.085 21.856 111.413 22.368C110.773 22.88 110.165 23.536 109.589 24.336C109.045 25.104 108.581 26.048 108.197 27.168C107.845 28.288 107.669 29.6 107.669 31.104C107.669 33.312 108.165 34.976 109.157 36.096C110.149 37.216 111.525 37.776 113.285 37.776C114.405 37.776 115.541 37.584 116.693 37.2C117.877 36.816 118.933 36.272 119.861 35.568C120.821 34.864 121.589 34 122.165 32.976C122.773 31.952 123.077 30.8 123.077 29.52C123.077 28.56 122.901 27.6 122.549 26.64C122.229 25.68 121.765 24.768 121.157 23.904C120.581 23.008 119.877 22.176 119.045 21.408C118.245 20.64 117.365 19.984 116.405 19.44C115.477 18.928 114.709 18.544 114.101 18.288C113.525 18 113.109 17.728 112.853 17.472C112.597 17.6 112.229 17.76 111.749 17.952C111.301 18.112 110.693 18.368 109.925 18.72L110.213 19.152ZM113.429 16.896C114.901 17.376 116.309 18.096 117.653 19.056C118.805 19.92 119.861 20.864 120.821 21.888C119.893 20.8 118.885 19.824 117.797 18.96C116.549 17.936 115.157 17.136 113.621 16.56L113.429 16.896ZM122.741 33.264C122.261 34.288 121.589 35.2 120.725 36C121.301 35.616 121.781 35.152 122.165 34.608C122.581 34.064 122.917 33.52 123.173 32.976C123.429 32.432 123.621 31.936 123.749 31.488C123.845 31.072 123.925 30.736 123.989 30.48C123.637 31.312 123.221 32.24 122.741 33.264ZM125.957 37.392C125.925 37.456 125.877 37.52 125.813 37.584C125.781 37.616 125.749 37.632 125.717 37.632C125.685 37.632 125.765 37.472 125.957 37.152C126.149 36.8 126.373 36.4 126.629 35.952C126.917 35.472 127.189 34.976 127.445 34.464C127.669 34.08 127.829 33.744 127.925 33.456C127.477 34.832 126.821 36.144 125.957 37.392ZM128.645 29.616C128.645 30.128 128.613 30.64 128.549 31.152C128.485 31.632 128.373 32.08 128.213 32.496C128.437 31.696 128.549 30.8 128.549 29.808C128.549 29.072 128.485 28.352 128.357 27.648C128.261 27.04 128.133 26.448 127.973 25.872C128.133 26.448 128.277 27.024 128.405 27.6C128.565 28.24 128.645 28.912 128.645 29.616ZM113.429 16.128L112.997 15.936C112.965 16 112.917 16.064 112.853 16.128C112.789 16.192 112.757 16.256 112.757 16.32C112.757 16.384 112.789 16.48 112.853 16.608C112.949 16.704 113.029 16.784 113.093 16.848L113.429 16.128ZM121.109 22.224C121.013 22.096 120.917 21.984 120.821 21.888C120.917 22.016 121.013 22.128 121.109 22.224ZM127.925 33.456C127.957 33.392 127.973 33.328 127.973 33.264C127.973 33.328 127.957 33.392 127.925 33.456ZM128.021 33.168C127.989 33.2 127.973 33.232 127.973 33.264C127.973 33.232 127.989 33.2 128.021 33.168ZM131.027 38.784C131.027 38.592 131.139 38.416 131.363 38.256C131.587 38.096 131.843 37.952 132.131 37.824C132.451 37.696 132.755 37.584 133.043 37.488C133.363 37.392 133.603 37.312 133.763 37.248C135.299 37.44 136.835 37.6 138.371 37.728C139.907 37.856 141.443 37.92 142.979 37.92C143.555 37.92 144.355 37.92 145.379 37.92C146.403 37.888 147.523 37.824 148.739 37.728C149.955 37.632 151.187 37.488 152.435 37.296C153.683 37.072 154.819 36.768 155.843 36.384C156.867 36 157.699 35.52 158.339 34.944C158.979 34.368 159.299 33.648 159.299 32.784C159.299 32.08 159.139 31.456 158.819 30.912C158.531 30.336 158.131 29.84 157.619 29.424C157.139 28.976 156.595 28.608 155.987 28.32C155.763 28.192 155.523 28.08 155.267 27.984C155.523 28.112 155.763 28.24 155.987 28.368C156.563 28.688 157.075 29.088 157.523 29.568C158.003 30.016 158.387 30.528 158.675 31.104C158.963 31.648 159.107 32.272 159.107 32.976C159.107 33.744 158.819 34.4 158.243 34.944C157.699 35.456 156.979 35.888 156.083 36.24C155.219 36.592 154.243 36.864 153.155 37.056C152.099 37.248 151.043 37.392 149.987 37.488C148.931 37.584 147.955 37.648 147.059 37.68C146.163 37.68 145.459 37.68 144.947 37.68C143.315 37.68 141.667 37.632 140.003 37.536C138.371 37.408 136.739 37.264 135.107 37.104C135.683 36.944 136.259 36.832 136.835 36.768C137.443 36.672 138.051 36.624 138.659 36.624C139.683 36.624 140.691 36.64 141.683 36.672C142.675 36.672 143.667 36.672 144.659 36.672C145.843 36.672 147.011 36.656 148.163 36.624C149.315 36.56 150.499 36.432 151.715 36.24L151.859 36.816C152.339 36.72 152.947 36.576 153.683 36.384C154.419 36.16 155.123 35.888 155.795 35.568C156.499 35.248 157.091 34.848 157.571 34.368C158.083 33.888 158.339 33.328 158.339 32.688C158.339 31.76 158.003 30.944 157.331 30.24C156.659 29.536 155.795 28.912 154.739 28.368C153.715 27.792 152.547 27.296 151.235 26.88C149.923 26.464 148.627 26.096 147.347 25.776C146.099 25.456 144.915 25.168 143.795 24.912C142.675 24.656 141.779 24.416 141.107 24.192V24.48C141.779 24.736 142.659 25.008 143.747 25.296C144.835 25.552 146.003 25.84 147.251 26.16C148.531 26.48 149.811 26.848 151.091 27.264C152.371 27.648 153.523 28.112 154.547 28.656C155.603 29.2 156.451 29.824 157.091 30.528C157.763 31.232 158.099 32.032 158.099 32.928C158.099 33.44 157.859 33.888 157.379 34.272C156.899 34.656 156.323 34.992 155.651 35.28C155.011 35.536 154.355 35.744 153.683 35.904C153.011 36.064 152.499 36.176 152.147 36.24C152.563 36.144 153.091 36.016 153.731 35.856C154.403 35.664 155.043 35.424 155.651 35.136C156.291 34.848 156.835 34.512 157.283 34.128C157.731 33.712 157.955 33.232 157.955 32.688C157.955 31.792 157.603 31.04 156.899 30.432C156.195 29.824 155.267 29.28 154.115 28.8C152.963 28.32 151.651 27.888 150.179 27.504C148.707 27.12 147.187 26.704 145.619 26.256C144.083 25.808 142.579 25.296 141.107 24.72C139.635 24.144 138.323 23.424 137.171 22.56C136.019 21.696 135.091 20.672 134.387 19.488C133.683 18.304 133.331 16.88 133.331 15.216C133.331 13.584 133.715 12.208 134.483 11.088C135.283 9.936 136.291 9.008 137.507 8.304C138.755 7.568 140.115 7.04 141.587 6.72C143.059 6.4 144.483 6.24 145.859 6.24C147.875 6.24 149.843 6.528 151.763 7.104C153.715 7.68 155.555 8.48 157.283 9.504C157.091 9.568 156.979 9.664 156.947 9.792C156.915 9.888 156.883 10 156.851 10.128C156.851 10.256 156.819 10.368 156.755 10.464C156.723 10.56 156.627 10.608 156.467 10.608C156.339 10.608 156.083 10.56 155.699 10.464C155.347 10.336 154.963 10.208 154.547 10.08C154.131 9.92 153.731 9.776 153.347 9.648C152.963 9.52 152.707 9.424 152.579 9.36L152.435 9.792C152.723 9.92 153.091 10.112 153.539 10.368C154.019 10.592 154.467 10.88 154.883 11.232C155.331 11.552 155.699 11.904 155.987 12.288C156.307 12.672 156.467 13.056 156.467 13.44C156.467 13.856 156.275 14.064 155.891 14.064C155.411 14.064 154.835 13.936 154.163 13.68C153.523 13.424 152.803 13.152 152.003 12.864C151.203 12.544 150.339 12.256 149.411 12C148.515 11.744 147.603 11.616 146.675 11.616C146.067 11.616 145.347 11.68 144.515 11.808C143.715 11.904 142.931 12.112 142.163 12.432C141.427 12.72 140.803 13.136 140.291 13.68C139.779 14.192 139.523 14.848 139.523 15.648C139.523 16.384 139.859 17.008 140.531 17.52C141.235 18.032 142.147 18.496 143.267 18.912C144.419 19.328 145.715 19.728 147.155 20.112C148.595 20.496 150.067 20.928 151.571 21.408C153.107 21.856 154.595 22.384 156.035 22.992C157.475 23.6 158.755 24.336 159.875 25.2C161.027 26.064 161.939 27.088 162.611 28.272C163.315 29.456 163.667 30.848 163.667 32.448C163.667 34.016 163.347 35.344 162.707 36.432C162.067 37.52 161.219 38.432 160.163 39.168C159.107 39.872 157.907 40.432 156.563 40.848C155.219 41.232 153.827 41.536 152.387 41.76C150.979 41.952 149.571 42.064 148.163 42.096C146.787 42.16 145.539 42.192 144.419 42.192H139.619C139.331 42.192 138.931 42.176 138.419 42.144C137.939 42.144 137.459 42.112 136.979 42.048C136.499 42.016 136.083 41.936 135.731 41.808C135.379 41.68 135.203 41.52 135.203 41.328L135.251 41.088C136.563 41.152 137.859 41.216 139.139 41.28C140.419 41.312 141.715 41.328 143.027 41.328C144.243 41.328 145.459 41.328 146.675 41.328C147.763 41.296 148.851 41.232 149.939 41.136C149.395 41.168 148.851 41.2 148.307 41.232C147.635 41.232 146.979 41.232 146.339 41.232H144.419C141.411 41.232 138.451 41.136 135.539 40.944C135.603 40.688 135.635 40.512 135.635 40.416C135.635 40.288 135.603 40.16 135.539 40.032C135.475 40.032 135.379 40.048 135.251 40.08C135.155 40.08 135.027 40.08 134.867 40.08C134.515 40.08 134.115 40.064 133.667 40.032C133.251 40 132.835 39.936 132.419 39.84C132.035 39.744 131.699 39.616 131.411 39.456C131.155 39.264 131.027 39.04 131.027 38.784ZM160.499 37.536C159.955 38.016 159.379 38.416 158.771 38.736C158.227 39.024 157.667 39.296 157.091 39.552C157.667 39.36 158.227 39.136 158.771 38.88C159.379 38.624 159.955 38.176 160.499 37.536ZM177.201 13.104C177.233 13.264 177.409 13.344 177.729 13.344H177.825C178.017 13.344 178.145 13.36 178.209 13.392C179.873 13.904 181.521 14.656 183.153 15.648C184.817 16.608 186.305 17.776 187.617 19.152C188.961 20.496 190.033 22.032 190.833 23.76C191.665 25.488 192.081 27.344 192.081 29.328C192.081 31.056 191.745 32.72 191.073 34.32C190.401 35.92 189.473 37.312 188.289 38.496C189.505 37.44 190.465 36.128 191.169 34.56C191.905 32.96 192.273 31.248 192.273 29.424C192.273 27.376 191.841 25.472 190.977 23.712C190.113 21.92 189.009 20.32 187.665 18.912C186.321 17.504 184.817 16.304 183.153 15.312C181.521 14.288 179.921 13.504 178.353 12.96C179.569 12.96 180.801 13.232 182.049 13.776C183.329 14.32 184.545 15.04 185.697 15.936C186.849 16.8 187.905 17.808 188.865 18.96C189.857 20.08 190.689 21.232 191.361 22.416L191.025 22.896C191.665 23.856 192.145 24.896 192.465 26.016C192.817 27.136 192.993 28.288 192.993 29.472C192.993 31.744 192.497 33.744 191.505 35.472C190.545 37.168 189.313 38.592 187.809 39.744C186.337 40.864 184.705 41.712 182.913 42.288C181.153 42.864 179.489 43.152 177.921 43.152C177.025 43.152 176.113 43.056 175.185 42.864C174.289 42.672 173.377 42.352 172.449 41.904V42.192C173.345 42.704 174.257 43.056 175.185 43.248C176.145 43.44 177.089 43.536 178.017 43.536C180.321 43.536 182.577 43.024 184.785 42C187.025 41.008 188.913 39.6 190.449 37.776C188.977 39.664 187.137 41.136 184.929 42.192C182.753 43.248 180.481 43.776 178.113 43.776C175.681 43.776 173.713 43.296 172.209 42.336C170.705 41.408 169.521 40.256 168.657 38.88C167.825 37.504 167.265 36.048 166.977 34.512C166.689 32.976 166.545 31.6 166.545 30.384C166.545 28.752 166.753 27.152 167.169 25.584C167.617 24.016 168.289 22.576 169.185 21.264C170.081 19.952 171.233 18.832 172.641 17.904C174.049 16.944 175.745 16.272 177.729 15.888L176.337 15.552C175.665 15.392 175.185 15.2 174.897 14.976C174.609 14.752 174.465 14.56 174.465 14.4C174.465 14.144 174.737 13.872 175.281 13.584C175.857 13.264 176.497 13.104 177.201 13.104ZM175.041 19.152C175.905 18.832 176.737 18.672 177.537 18.672C178.337 18.672 178.945 18.8 179.361 19.056C179.809 19.28 180.033 19.52 180.033 19.776C180.033 19.936 179.841 20.112 179.457 20.304C179.105 20.496 178.641 20.768 178.065 21.12C177.521 21.44 176.913 21.856 176.241 22.368C175.601 22.88 174.993 23.536 174.417 24.336C173.873 25.104 173.409 26.048 173.025 27.168C172.673 28.288 172.497 29.6 172.497 31.104C172.497 33.312 172.993 34.976 173.985 36.096C174.977 37.216 176.353 37.776 178.113 37.776C179.233 37.776 180.369 37.584 181.521 37.2C182.705 36.816 183.761 36.272 184.689 35.568C185.649 34.864 186.417 34 186.993 32.976C187.601 31.952 187.905 30.8 187.905 29.52C187.905 28.56 187.729 27.6 187.377 26.64C187.057 25.68 186.593 24.768 185.985 23.904C185.409 23.008 184.705 22.176 183.873 21.408C183.073 20.64 182.193 19.984 181.233 19.44C180.305 18.928 179.537 18.544 178.929 18.288C178.353 18 177.937 17.728 177.681 17.472C177.425 17.6 177.057 17.76 176.577 17.952C176.129 18.112 175.521 18.368 174.753 18.72L175.041 19.152ZM178.257 16.896C179.729 17.376 181.137 18.096 182.481 19.056C183.633 19.92 184.689 20.864 185.649 21.888C184.721 20.8 183.713 19.824 182.625 18.96C181.377 17.936 179.985 17.136 178.449 16.56L178.257 16.896ZM187.569 33.264C187.089 34.288 186.417 35.2 185.553 36C186.129 35.616 186.609 35.152 186.993 34.608C187.409 34.064 187.745 33.52 188.001 32.976C188.257 32.432 188.449 31.936 188.577 31.488C188.673 31.072 188.753 30.736 188.817 30.48C188.465 31.312 188.049 32.24 187.569 33.264ZM190.785 37.392C190.753 37.456 190.705 37.52 190.641 37.584C190.609 37.616 190.577 37.632 190.545 37.632C190.513 37.632 190.593 37.472 190.785 37.152C190.977 36.8 191.201 36.4 191.457 35.952C191.745 35.472 192.017 34.976 192.273 34.464C192.497 34.08 192.657 33.744 192.753 33.456C192.305 34.832 191.649 36.144 190.785 37.392ZM193.473 29.616C193.473 30.128 193.441 30.64 193.377 31.152C193.313 31.632 193.201 32.08 193.041 32.496C193.265 31.696 193.377 30.8 193.377 29.808C193.377 29.072 193.313 28.352 193.185 27.648C193.089 27.04 192.961 26.448 192.801 25.872C192.961 26.448 193.105 27.024 193.233 27.6C193.393 28.24 193.473 28.912 193.473 29.616ZM178.257 16.128L177.825 15.936C177.793 16 177.745 16.064 177.681 16.128C177.617 16.192 177.585 16.256 177.585 16.32C177.585 16.384 177.617 16.48 177.681 16.608C177.777 16.704 177.857 16.784 177.921 16.848L178.257 16.128ZM185.937 22.224C185.841 22.096 185.745 21.984 185.649 21.888C185.745 22.016 185.841 22.128 185.937 22.224ZM192.753 33.456C192.785 33.392 192.801 33.328 192.801 33.264C192.801 33.328 192.785 33.392 192.753 33.456ZM192.849 33.168C192.817 33.2 192.801 33.232 192.801 33.264C192.801 33.232 192.817 33.2 192.849 33.168ZM198.255 38.928C198.255 38.768 198.303 38.576 198.399 38.352C198.495 38.128 198.543 37.888 198.543 37.632C198.639 36.864 198.703 36.32 198.735 36C198.767 35.648 198.783 35.344 198.783 35.088C198.783 33.744 198.735 32.304 198.639 30.768C198.575 29.2 198.495 27.696 198.399 26.256C198.399 25.808 198.383 25.28 198.351 24.672C198.351 24.064 198.319 23.584 198.255 23.232C198.351 22.112 198.431 21.008 198.495 19.92C198.559 18.832 198.591 17.728 198.591 16.608V15.408C198.591 14.992 198.575 14.576 198.543 14.16C198.639 14.256 198.735 14.304 198.831 14.304C198.959 14.304 199.087 14.256 199.215 14.16C199.375 14.064 199.519 14.016 199.647 14.016C199.871 14.016 200.047 14.256 200.175 14.736C200.335 15.216 200.415 16.272 200.415 17.904H200.847C201.007 16.112 201.247 14.688 201.567 13.632C201.919 12.576 202.271 12.048 202.623 12.048C202.783 12.048 203.039 12.4 203.391 13.104C203.743 13.776 203.919 14.848 203.919 16.32L204.447 15.456C204.799 15.04 205.183 14.608 205.599 14.16C206.047 13.712 206.543 13.312 207.087 12.96C207.631 12.608 208.239 12.32 208.911 12.096C209.583 11.84 210.351 11.712 211.215 11.712C212.879 11.712 214.319 12.096 215.535 12.864C216.783 13.6 217.823 14.576 218.655 15.792C219.487 16.976 220.159 18.336 220.671 19.872C221.215 21.376 221.631 22.912 221.919 24.48C222.207 26.016 222.399 27.504 222.495 28.944C222.591 30.384 222.639 31.616 222.639 32.64C222.639 33.568 222.575 34.128 222.447 34.32C222.351 34.48 222.159 34.576 221.871 34.608C221.807 32.144 221.647 29.632 221.391 27.072C221.135 24.512 220.527 22.032 219.567 19.632C220.431 22.16 220.975 24.656 221.199 27.12C221.455 29.552 221.583 32 221.583 34.464C221.391 34.368 221.215 34.32 221.055 34.32C220.927 34.32 220.815 34.368 220.719 34.464C220.719 34.72 220.735 34.992 220.767 35.28C220.799 35.536 220.815 35.792 220.815 36.048C220.847 36.304 220.863 36.544 220.863 36.768C220.671 37.504 220.479 38.032 220.287 38.352C220.095 38.672 219.919 38.832 219.759 38.832C219.567 38.832 219.407 38.752 219.279 38.592C219.151 38.4 219.023 38.176 218.895 37.92C218.799 37.664 218.687 37.392 218.559 37.104C218.463 36.784 218.319 36.48 218.127 36.192C218.191 35.648 218.239 35.216 218.271 34.896C218.303 34.544 218.319 34.256 218.319 34.032C218.319 33.168 218.303 32.128 218.271 30.912C218.239 29.696 218.143 28.432 217.983 27.12C217.855 25.776 217.631 24.448 217.311 23.136C217.023 21.792 216.607 20.608 216.063 19.584C215.551 18.528 214.895 17.68 214.095 17.04C213.295 16.368 212.335 16.032 211.215 16.032C210.447 16.032 209.759 16.288 209.151 16.8C208.575 17.312 208.063 17.968 207.615 18.768C207.199 19.568 206.831 20.448 206.511 21.408C206.191 22.336 205.935 23.232 205.743 24.096C206.031 23.2 206.319 22.288 206.607 21.36C206.927 20.432 207.295 19.584 207.711 18.816C208.159 18.048 208.671 17.424 209.247 16.944C209.823 16.432 210.495 16.176 211.263 16.176C212.255 16.176 213.103 16.448 213.807 16.992C214.543 17.536 215.151 18.24 215.631 19.104C216.143 19.968 216.543 20.96 216.831 22.08C217.151 23.168 217.391 24.288 217.551 25.44C217.711 26.56 217.807 27.664 217.839 28.752C217.903 29.808 217.935 30.72 217.935 31.488C217.935 32.096 217.919 32.704 217.887 33.312C217.887 33.92 217.871 34.544 217.839 35.184C217.551 33.968 217.327 32.704 217.167 31.392C217.039 30.048 216.895 28.736 216.735 27.456C216.575 26.144 216.367 24.896 216.111 23.712C215.887 22.496 215.551 21.376 215.103 20.352L215.439 19.872C215.119 19.136 214.751 18.576 214.335 18.192C213.951 17.776 213.567 17.472 213.183 17.28C212.799 17.088 212.447 16.976 212.127 16.944C211.807 16.912 211.599 16.896 211.503 16.896C210.703 16.896 209.983 17.184 209.343 17.76C208.735 18.336 208.191 19.12 207.711 20.112C207.263 21.072 206.863 22.192 206.511 23.472C206.159 24.752 205.855 26.096 205.599 27.504C205.343 28.912 205.119 30.336 204.927 31.776C204.735 33.184 204.575 34.512 204.447 35.76H204.879C205.039 34.672 205.199 33.472 205.359 32.16C205.551 30.848 205.743 29.52 205.935 28.176C206.159 26.8 206.415 25.472 206.703 24.192C206.991 22.912 207.327 21.76 207.711 20.736C208.127 19.712 208.607 18.88 209.151 18.24C209.663 17.632 210.287 17.28 211.023 17.184C210.319 17.344 209.727 17.792 209.247 18.528C208.735 19.296 208.287 20.24 207.903 21.36C207.519 22.48 207.167 23.712 206.847 25.056C206.559 26.368 206.287 27.632 206.031 28.848L205.071 35.856C204.943 36.304 204.847 36.704 204.783 37.056L204.591 38.064C204.527 38.384 204.463 38.736 204.399 39.12C204.335 39.472 204.255 39.888 204.159 40.368L204.015 40.944H203.727L198.879 39.312C198.719 39.28 198.591 39.232 198.495 39.168C198.431 39.104 198.351 39.024 198.255 38.928ZM206.607 14.304C205.967 14.848 205.455 15.44 205.071 16.08C204.719 16.688 204.383 17.312 204.063 17.952V18C204.511 17.072 205.135 16.128 205.935 15.168C206.703 14.272 207.727 13.6 209.007 13.152C208.591 13.28 208.191 13.408 207.807 13.536C207.359 13.696 206.959 13.952 206.607 14.304ZM212.367 12.72C212.207 12.688 211.983 12.672 211.695 12.672C212.719 12.928 213.679 13.216 214.575 13.536C215.471 13.824 216.319 14.416 217.119 15.312C216.575 14.576 215.855 14 214.959 13.584C214.095 13.168 213.231 12.88 212.367 12.72ZM213.663 18.192C213.407 18 213.103 17.856 212.751 17.76C212.431 17.632 212.031 17.472 211.551 17.28L211.503 17.184C212.047 17.216 212.527 17.344 212.943 17.568C213.359 17.76 213.759 18.112 214.143 18.624L213.663 18.192ZM217.215 15.408C217.663 15.952 218.079 16.576 218.463 17.28C218.847 17.984 219.183 18.608 219.471 19.152C219.151 18.416 218.847 17.744 218.559 17.136C218.271 16.528 217.823 15.952 217.215 15.408ZM228.695 39.504C228.823 38.608 228.935 37.568 229.031 36.384C229.159 35.168 229.271 33.952 229.367 32.736C229.463 31.52 229.559 30.336 229.655 29.184C229.751 28 229.847 26.976 229.943 26.112C229.783 26.976 229.639 27.968 229.511 29.088C229.383 30.208 229.255 31.36 229.127 32.544C228.999 33.728 228.871 34.912 228.743 36.096C228.615 37.248 228.503 38.288 228.407 39.216C227.927 38.896 227.687 38.464 227.687 37.92C227.687 37.28 227.703 36.752 227.735 36.336C227.767 35.888 227.815 35.376 227.879 34.8L228.407 34.32C228.375 34.16 228.359 34.016 228.359 33.888V33.408C228.359 32.672 228.439 31.84 228.599 30.912C228.759 29.952 228.935 28.992 229.127 28.032C229.351 27.04 229.543 26.096 229.703 25.2C229.863 24.272 229.943 23.472 229.943 22.8L229.367 22.656C229.303 23.424 229.207 24.304 229.079 25.296C228.951 26.256 228.807 27.264 228.647 28.32C228.519 29.344 228.391 30.368 228.263 31.392C228.199 31.936 228.135 32.448 228.071 32.928C228.135 32.032 228.215 31.072 228.311 30.048C228.471 28.576 228.631 27.12 228.791 25.68C228.983 24.208 229.159 22.768 229.319 21.36C229.479 19.952 229.639 18.656 229.799 17.472C229.799 16.992 229.911 16.48 230.135 15.936C230.391 15.36 230.567 14.768 230.663 14.16C230.855 14.224 231.015 14.256 231.143 14.256H231.479C231.799 14.256 232.007 14.336 232.103 14.496C232.199 14.624 232.247 14.816 232.247 15.072V15.312L232.679 15.456C232.935 14.976 233.239 14.592 233.591 14.304C233.943 14.016 234.295 13.872 234.647 13.872C235.415 13.872 235.799 14.688 235.799 16.32C235.799 17.184 235.703 18.112 235.511 19.104C235.351 20.064 235.271 21.008 235.271 21.936V22.56C235.271 23.584 235.159 24.704 234.935 25.92C234.711 27.104 234.455 28.32 234.167 29.568C233.911 30.784 233.671 31.968 233.447 33.12C233.223 34.272 233.111 35.328 233.111 36.288C233.111 36.512 233.127 36.752 233.159 37.008C233.191 37.264 233.207 37.504 233.207 37.728C233.207 38.208 233.111 38.512 232.919 38.64C232.759 38.736 232.551 38.784 232.295 38.784C232.295 38.368 232.279 37.856 232.247 37.248C232.215 36.64 232.199 36.096 232.199 35.616C232.135 35.968 232.103 36.448 232.103 37.056C232.103 37.664 232.071 38.24 232.007 38.784H231.287V39.36C230.999 39.872 230.615 40.128 230.135 40.128C229.911 40.128 229.655 40.064 229.367 39.936C229.079 39.808 228.855 39.664 228.695 39.504ZM238.583 2.64C238.039 2.96 237.543 3.376 237.095 3.888C236.647 4.4 236.183 4.896 235.703 5.376C235.991 5.184 236.247 4.976 236.471 4.752C236.695 4.528 236.919 4.304 237.143 4.08C237.399 3.856 237.655 3.632 237.911 3.408C238.199 3.184 238.519 2.976 238.871 2.784C238.967 2.912 239.047 3.024 239.111 3.12C239.207 3.216 239.255 3.312 239.255 3.408L238.151 4.512C238.151 4.448 238.087 4.384 237.959 4.32C237.863 4.256 237.783 4.224 237.719 4.224C237.623 4.544 237.463 4.8 237.239 4.992C237.015 5.184 236.791 5.36 236.567 5.52C236.343 5.68 236.119 5.856 235.895 6.048C235.671 6.24 235.511 6.496 235.415 6.816V6.912C235.415 6.944 235.463 6.96 235.559 6.96L237.959 4.704L237.047 5.616C236.599 6.064 236.119 6.528 235.607 7.008C235.127 7.456 234.663 7.856 234.215 8.208C233.799 8.56 233.543 8.736 233.447 8.736L233.399 8.688C233.175 8.624 232.935 8.592 232.679 8.592C232.455 8.592 232.215 8.576 231.959 8.544C231.959 8.288 231.911 8.016 231.815 7.728C231.751 7.44 231.719 7.216 231.719 7.056C231.719 6.896 231.799 6.816 231.959 6.816C231.959 6.72 231.895 6.576 231.767 6.384C231.671 6.16 231.559 5.92 231.431 5.664C231.303 5.376 231.175 5.088 231.047 4.8C230.951 4.48 230.903 4.16 230.903 3.84C230.903 3.52 231.031 3.216 231.287 2.928C231.575 2.608 231.895 2.336 232.247 2.112C232.631 1.888 232.999 1.696 233.351 1.536C233.703 1.376 233.959 1.264 234.119 1.2C234.247 1.2 234.295 1.136 234.263 1.008C234.231 0.847999 234.279 0.767999 234.407 0.767999L235.271 1.056C235.207 1.216 234.999 1.488 234.647 1.872C234.327 2.224 234.087 2.48 233.927 2.64C234.151 2.48 234.407 2.24 234.695 1.92C235.015 1.6 235.255 1.36 235.415 1.2C235.575 1.264 235.719 1.328 235.847 1.392C235.975 1.456 236.071 1.488 236.135 1.488L236.279 1.344C236.503 1.344 236.743 1.392 236.999 1.488C237.287 1.584 237.543 1.696 237.767 1.824C237.991 1.952 238.183 2.096 238.343 2.256C238.503 2.416 238.583 2.544 238.583 2.64ZM227.975 34.08C228.007 33.728 228.039 33.376 228.071 33.024C228.039 33.408 228.007 33.76 227.975 34.08ZM265.903 39.456C264.495 40.032 263.039 40.48 261.535 40.8C260.063 41.12 258.559 41.28 257.023 41.28C255.615 41.28 254.239 41.12 252.895 40.8C251.551 40.48 250.319 39.968 249.199 39.264C248.079 38.56 247.087 37.648 246.223 36.528C245.391 35.376 244.751 34 244.303 32.4C244.399 33.808 244.783 35.024 245.455 36.048C246.127 37.04 246.959 37.904 247.951 38.64C248.975 39.344 250.095 39.92 251.311 40.368C252.527 40.816 253.695 41.184 254.815 41.472C254.975 41.504 255.199 41.52 255.487 41.52C257.375 41.52 259.087 41.36 260.623 41.04C262.159 40.72 263.727 40.384 265.327 40.032C264.815 40.448 264.191 40.816 263.455 41.136C262.751 41.424 261.967 41.68 261.103 41.904C260.271 42.096 259.391 42.24 258.463 42.336C257.535 42.464 256.607 42.528 255.679 42.528H255.151C254.991 42.528 254.831 42.512 254.671 42.48L254.335 41.856C253.183 41.728 251.983 41.44 250.735 40.992C249.487 40.544 248.335 39.92 247.279 39.12C246.255 38.288 245.391 37.28 244.687 36.096C244.015 34.912 243.679 33.536 243.679 31.968C243.679 30.656 243.855 29.376 244.207 28.128C244.559 26.88 245.023 25.664 245.599 24.48C245.567 24.512 245.519 24.528 245.455 24.528C245.359 24.528 245.311 24.464 245.311 24.336C244.735 25.488 244.239 26.688 243.823 27.936C243.439 29.152 243.247 30.48 243.247 31.92C243.247 33.456 243.599 34.816 244.303 36C245.007 37.184 245.839 38.192 246.799 39.024C247.791 39.824 248.799 40.48 249.823 40.992C250.751 41.44 251.519 41.76 252.127 41.952C251.135 41.664 250.127 41.248 249.103 40.704C248.015 40.128 247.023 39.408 246.127 38.544C245.263 37.648 244.543 36.624 243.967 35.472C243.391 34.288 243.103 32.992 243.103 31.584C243.103 29.568 243.471 27.68 244.207 25.92C244.943 24.16 245.919 22.64 247.135 21.36C248.351 20.048 249.743 19.024 251.311 18.288C252.911 17.52 254.559 17.136 256.255 17.136C256.543 17.072 256.895 17.04 257.311 17.04C257.759 17.008 258.127 16.992 258.415 16.992C259.439 17.216 260.463 17.488 261.487 17.808C262.543 18.128 263.583 18.576 264.607 19.152C264.479 19.216 264.383 19.312 264.319 19.44C264.287 19.536 264.255 19.664 264.223 19.824C264.191 19.952 264.127 20.064 264.031 20.16C263.967 20.256 263.839 20.304 263.647 20.304C263.487 20.304 263.247 20.256 262.927 20.16C262.607 20.064 262.159 19.92 261.583 19.728C261.487 19.824 261.439 19.968 261.439 20.16C262.207 20.544 262.735 20.992 263.023 21.504C263.311 21.984 263.455 22.448 263.455 22.896C263.455 23.12 263.215 23.312 262.735 23.472C262.319 23.472 261.663 23.392 260.767 23.232C259.903 23.072 258.927 22.992 257.839 22.992C257.359 22.992 256.831 23.024 256.255 23.088C255.679 23.12 255.103 23.216 254.527 23.376C253.951 23.504 253.407 23.712 252.895 24C252.383 24.256 251.967 24.608 251.647 25.056C251.263 25.568 250.911 26.144 250.591 26.784C250.271 27.424 249.983 28.08 249.727 28.752C249.471 29.392 249.263 30.016 249.103 30.624C248.975 31.232 248.911 31.776 248.911 32.256C248.911 32.704 249.119 33.216 249.535 33.792C249.951 34.336 250.479 34.864 251.119 35.376C251.791 35.856 252.543 36.272 253.375 36.624C254.239 36.976 255.103 37.152 255.967 37.152C256.383 37.152 256.879 37.088 257.455 36.96C258.063 36.832 258.671 36.688 259.279 36.528C259.919 36.336 260.543 36.176 261.151 36.048C261.759 35.92 262.271 35.856 262.687 35.856C263.071 35.856 263.311 35.904 263.407 36C263.535 36.064 263.599 36.208 263.599 36.432C262.863 36.688 262.095 36.944 261.295 37.2C260.783 37.36 260.287 37.52 259.807 37.68L261.295 37.296C262.063 37.072 262.831 36.832 263.599 36.576C263.599 36.736 263.599 36.88 263.599 37.008C263.631 37.136 263.727 37.28 263.887 37.44L264.367 37.248C264.623 37.152 264.895 37.024 265.183 36.864C265.823 36.864 266.255 36.928 266.479 37.056C266.735 37.184 266.863 37.376 266.863 37.632C266.863 37.792 266.831 37.936 266.767 38.064C266.735 38.16 266.671 38.272 266.575 38.4C266.511 38.496 266.415 38.624 266.287 38.784C266.159 38.944 266.031 39.168 265.903 39.456ZM248.479 33.696C248.735 34.272 249.119 34.832 249.631 35.376C250.143 35.888 250.719 36.352 251.359 36.768C252.031 37.152 252.735 37.472 253.471 37.728C254.175 37.984 254.879 38.128 255.583 38.16C254.943 38.096 254.271 37.936 253.567 37.68C252.831 37.424 252.127 37.104 251.455 36.72C250.815 36.304 250.223 35.84 249.679 35.328C249.167 34.816 248.767 34.272 248.479 33.696ZM259.519 37.728C259.615 37.696 259.711 37.68 259.807 37.68C259.711 37.68 259.615 37.696 259.519 37.728ZM252.319 42C252.255 42 252.191 41.984 252.127 41.952C252.191 41.984 252.255 42 252.319 42Z" fill="white"/>
</svg>
